# Blender 4.1.1
# www.blender.org
mtllib untitled.mtl
o Hex_3
v -1.676065 0.950000 -1.996970
v -1.719366 0.950000 -1.971970
v -1.669366 1.000000 -1.935368
v -1.698912 0.950000 -2.004895
v -1.673945 0.974967 -1.986619
v -1.695890 0.973911 -1.994229
v -1.711461 0.974967 -1.964958
v -1.714806 0.950000 -1.995719
v -1.707080 0.973911 -1.987769
v -1.671486 0.993320 -1.964007
v -1.693108 0.993320 -1.951523
v -1.694159 0.986832 -1.978310
v 2.567459 0.950000 0.453030
v 2.510760 1.000000 0.478030
v 2.567459 0.950000 0.503030
v 2.557434 0.974967 0.456370
v 2.585747 0.950000 0.468853
v 2.574998 0.973911 0.471569
v 2.536622 0.993320 0.490513
v 2.536622 0.993320 0.465546
v 2.560346 0.986832 0.478030
v 2.585747 0.950000 0.487206
v 2.557434 0.974967 0.499690
v 2.574998 0.973911 0.484490
v -1.676065 0.950000 0.286766
v -1.669366 1.000000 0.232898
v -1.719366 0.950000 0.211766
v -1.673945 0.974967 0.278862
v -1.698912 0.950000 0.268309
v -1.695890 0.973911 0.261132
v -1.693108 0.993320 0.221638
v -1.671486 0.993320 0.259089
v -1.694159 0.986832 0.247212
v -1.714806 0.950000 0.240780
v -1.711461 0.974967 0.213881
v -1.707080 0.973911 0.241751
v 0.589685 0.950000 1.594898
v 0.676288 0.950000 1.594898
v 0.632987 1.000000 1.562163
v 0.617093 0.950000 1.605456
v 0.595470 0.974967 1.589110
v 0.621797 0.973911 1.599250
v 0.670503 0.974967 1.589110
v 0.648881 0.950000 1.605456
v 0.644177 0.973911 1.599250
v 0.611365 0.993320 1.577094
v 0.654609 0.993320 1.577094
v 0.632987 0.986832 1.590791
v -1.676065 -0.950000 -1.996970
v -1.669366 -1.000000 -1.935368
v -1.719366 -0.950000 -1.971970
v -1.673945 -0.974967 -1.986619
v -1.698912 -0.950000 -2.004895
v -1.695890 -0.973911 -1.994229
v -1.693108 -0.993320 -1.951523
v -1.671486 -0.993320 -1.964007
v -1.694159 -0.986832 -1.978310
v -1.714806 -0.950000 -1.995719
v -1.711461 -0.974967 -1.964958
v -1.707080 -0.973911 -1.987769
v 2.567459 -0.950000 0.453030
v 2.567459 -0.950000 0.503030
v 2.510760 -1.000000 0.478030
v 2.585747 -0.950000 0.468853
v 2.557434 -0.974967 0.456370
v 2.574998 -0.973911 0.471569
v 2.557434 -0.974967 0.499690
v 2.585747 -0.950000 0.487206
v 2.574998 -0.973911 0.484490
v 2.536622 -0.993320 0.465546
v 2.536622 -0.993320 0.490513
v 2.560346 -0.986832 0.478030
v -1.676065 -0.950000 0.286766
v -1.719366 -0.950000 0.211766
v -1.669366 -1.000000 0.232898
v -1.698912 -0.950000 0.268309
v -1.673945 -0.974967 0.278862
v -1.695890 -0.973911 0.261132
v -1.711461 -0.974967 0.213881
v -1.714806 -0.950000 0.240780
v -1.707080 -0.973911 0.241751
v -1.671486 -0.993320 0.259089
v -1.693108 -0.993320 0.221638
v -1.694159 -0.986832 0.247212
v 0.589685 -0.950000 1.594898
v 0.632987 -1.000000 1.562163
v 0.676288 -0.950000 1.594898
v 0.595470 -0.974967 1.589110
v 0.617093 -0.950000 1.605456
v 0.621797 -0.973911 1.599250
v 0.654609 -0.993320 1.577094
v 0.611365 -0.993320 1.577094
v 0.632987 -0.986832 1.590791
v 0.648881 -0.950000 1.605456
v 0.670503 -0.974967 1.589110
v 0.644177 -0.973911 1.599250
vn -1.0000 -0.0000 -0.0000
vn -0.0000 -1.0000 -0.0000
vn -0.0000 1.0000 -0.0000
vn -0.5000 -0.0000 0.8660
vn 0.5000 -0.0000 0.8660
vn 0.2996 0.3501 -0.8875
vn -0.4560 0.4100 -0.7899
vn -0.9184 0.3501 -0.1843
vn -0.6383 0.7535 -0.1575
vn -0.1283 0.9665 -0.2223
vn 0.1827 0.7535 -0.6315
vn -0.3307 0.7500 -0.5728
vn 0.6188 0.3501 -0.7032
vn 0.4555 0.7535 -0.4740
vn 0.2567 0.9665 -0.0000
vn 0.4555 0.7535 0.4740
vn 0.6188 0.3501 0.7032
vn 0.9121 0.4100 -0.0000
vn 0.6614 0.7500 -0.0000
vn -0.6052 0.2922 0.7406
vn -0.4858 0.6699 0.5614
vn -0.3619 0.9085 0.2089
vn -0.7291 0.6699 0.1400
vn -0.9439 0.2922 0.1538
vn -0.8383 0.2512 0.4840
vn -0.7246 0.5477 0.4183
vn -0.3388 0.2922 0.8944
vn -0.0000 0.2512 0.9679
vn 0.3388 0.2922 0.8944
vn 0.2433 0.6699 0.7014
vn -0.0000 0.9085 0.4179
vn -0.2433 0.6699 0.7014
vn -0.0000 0.5477 0.8366
vn 0.2996 -0.3501 -0.8875
vn 0.1827 -0.7535 -0.6315
vn -0.1283 -0.9665 -0.2223
vn -0.6382 -0.7535 -0.1575
vn -0.9184 -0.3501 -0.1843
vn -0.4560 -0.4100 -0.7899
vn -0.3307 -0.7500 -0.5728
vn 0.6188 -0.3501 -0.7032
vn 0.9121 -0.4100 -0.0000
vn 0.6188 -0.3501 0.7032
vn 0.4555 -0.7535 0.4740
vn 0.2567 -0.9665 -0.0000
vn 0.4555 -0.7535 -0.4740
vn 0.6614 -0.7500 -0.0000
vn -0.6052 -0.2922 0.7406
vn -0.8383 -0.2512 0.4840
vn -0.9439 -0.2922 0.1538
vn -0.7291 -0.6699 0.1400
vn -0.3619 -0.9085 0.2089
vn -0.4858 -0.6699 0.5614
vn -0.7246 -0.5477 0.4183
vn -0.3388 -0.2922 0.8944
vn -0.2433 -0.6699 0.7014
vn -0.0000 -0.9085 0.4179
vn 0.2433 -0.6699 0.7014
vn 0.3388 -0.2922 0.8944
vn -0.0000 -0.2512 0.9679
vn -0.0000 -0.5477 0.8366
vn -0.4767 0.3018 0.8256
vn -0.3536 0.7071 0.6124
vn -0.1354 0.9626 0.2345
vn 0.1354 0.9626 -0.2345
vn 0.3536 0.7071 -0.6124
vn 0.4767 0.3018 -0.8256
vn -0.2708 0.9626 -0.0000
vn -0.7071 0.7071 -0.0000
vn -0.9534 0.3018 -0.0000
vn 0.1354 0.9626 0.2345
vn 0.3536 0.7071 0.6124
vn 0.4767 0.3018 0.8256
vn -0.1354 -0.9626 0.2345
vn -0.3536 -0.7071 0.6124
vn -0.4767 -0.3018 0.8256
vn 0.4767 -0.3018 -0.8256
vn 0.3536 -0.7071 -0.6124
vn 0.1354 -0.9626 -0.2345
vn -0.9534 -0.3018 -0.0000
vn -0.7071 -0.7071 -0.0000
vn -0.2708 -0.9626 -0.0000
vn 0.4767 -0.3018 0.8256
vn 0.3536 -0.7071 0.6124
vn 0.1354 -0.9626 0.2345
vn 0.3277 -0.0000 -0.9448
vn -0.5000 -0.0000 -0.8660
vn -0.9821 -0.0000 -0.1886
vn 0.6543 -0.0000 0.7562
vn 1.0000 -0.0000 -0.0000
vn 0.6543 -0.0000 -0.7562
vn -0.9879 -0.0000 0.1553
vn -0.8660 -0.0000 0.5000
vn -0.6284 -0.0000 0.7779
vn -0.3595 -0.0000 0.9332
vn -0.0000 -0.0000 1.0000
vn 0.3595 -0.0000 0.9332
vn 0.5000 -0.0000 -0.8660
vt 0.000000 0.000000
s 1
usemtl 
f 2/1/1 51/1/1 74/1/1 27/1/1
f 75/1/2 50/1/2 63/1/2 86/1/2
f 26/1/3 39/1/3 14/1/3 3/1/3
f 37/1/4 25/1/4 73/1/4 85/1/4
f 38/1/5 87/1/5 62/1/5 15/1/5
f 1/1/6 4/1/6 6/1/6 5/1/6
f 4/1/7 8/1/7 9/1/7 6/1/7
f 2/1/8 7/1/8 9/1/8 8/1/8
f 7/1/9 11/1/9 12/1/9 9/1/9
f 3/1/10 10/1/10 12/1/10 11/1/10
f 10/1/11 5/1/11 6/1/11 12/1/11
f 6/1/12 9/1/12 12/1/12
f 13/1/13 16/1/13 18/1/13 17/1/13
f 16/1/14 20/1/14 21/1/14 18/1/14
f 14/1/15 19/1/15 21/1/15 20/1/15
f 19/1/16 23/1/16 24/1/16 21/1/16
f 15/1/17 22/1/17 24/1/17 23/1/17
f 22/1/18 17/1/18 18/1/18 24/1/18
f 18/1/19 21/1/19 24/1/19
f 25/1/20 28/1/20 30/1/20 29/1/20
f 28/1/21 32/1/21 33/1/21 30/1/21
f 26/1/22 31/1/22 33/1/22 32/1/22
f 31/1/23 35/1/23 36/1/23 33/1/23
f 27/1/24 34/1/24 36/1/24 35/1/24
f 34/1/25 29/1/25 30/1/25 36/1/25
f 30/1/26 33/1/26 36/1/26
f 37/1/27 40/1/27 42/1/27 41/1/27
f 40/1/28 44/1/28 45/1/28 42/1/28
f 38/1/29 43/1/29 45/1/29 44/1/29
f 43/1/30 47/1/30 48/1/30 45/1/30
f 39/1/31 46/1/31 48/1/31 47/1/31
f 46/1/32 41/1/32 42/1/32 48/1/32
f 42/1/33 45/1/33 48/1/33
f 49/1/34 52/1/34 54/1/34 53/1/34
f 52/1/35 56/1/35 57/1/35 54/1/35
f 50/1/36 55/1/36 57/1/36 56/1/36
f 55/1/37 59/1/37 60/1/37 57/1/37
f 51/1/38 58/1/38 60/1/38 59/1/38
f 58/1/39 53/1/39 54/1/39 60/1/39
f 54/1/40 57/1/40 60/1/40
f 61/1/41 64/1/41 66/1/41 65/1/41
f 64/1/42 68/1/42 69/1/42 66/1/42
f 62/1/43 67/1/43 69/1/43 68/1/43
f 67/1/44 71/1/44 72/1/44 69/1/44
f 63/1/45 70/1/45 72/1/45 71/1/45
f 70/1/46 65/1/46 66/1/46 72/1/46
f 66/1/47 69/1/47 72/1/47
f 73/1/48 76/1/48 78/1/48 77/1/48
f 76/1/49 80/1/49 81/1/49 78/1/49
f 74/1/50 79/1/50 81/1/50 80/1/50
f 79/1/51 83/1/51 84/1/51 81/1/51
f 75/1/52 82/1/52 84/1/52 83/1/52
f 82/1/53 77/1/53 78/1/53 84/1/53
f 78/1/54 81/1/54 84/1/54
f 85/1/55 88/1/55 90/1/55 89/1/55
f 88/1/56 92/1/56 93/1/56 90/1/56
f 86/1/57 91/1/57 93/1/57 92/1/57
f 91/1/58 95/1/58 96/1/58 93/1/58
f 87/1/59 94/1/59 96/1/59 95/1/59
f 94/1/60 89/1/60 90/1/60 96/1/60
f 90/1/61 93/1/61 96/1/61
f 25/1/62 37/1/62 41/1/62 28/1/62
f 28/1/63 41/1/63 46/1/63 32/1/63
f 32/1/64 46/1/64 39/1/64 26/1/64
f 3/1/65 14/1/65 20/1/65 10/1/65
f 10/1/66 20/1/66 16/1/66 5/1/66
f 5/1/67 16/1/67 13/1/67 1/1/67
f 26/1/68 3/1/68 11/1/68 31/1/68
f 31/1/69 11/1/69 7/1/69 35/1/69
f 35/1/70 7/1/70 2/1/70 27/1/70
f 14/1/71 39/1/71 47/1/71 19/1/71
f 19/1/72 47/1/72 43/1/72 23/1/72
f 23/1/73 43/1/73 38/1/73 15/1/73
f 75/1/74 86/1/74 92/1/74 82/1/74
f 82/1/75 92/1/75 88/1/75 77/1/75
f 77/1/76 88/1/76 85/1/76 73/1/76
f 49/1/77 61/1/77 65/1/77 52/1/77
f 52/1/78 65/1/78 70/1/78 56/1/78
f 56/1/79 70/1/79 63/1/79 50/1/79
f 74/1/80 51/1/80 59/1/80 79/1/80
f 79/1/81 59/1/81 55/1/81 83/1/81
f 83/1/82 55/1/82 50/1/82 75/1/82
f 62/1/83 87/1/83 95/1/83 67/1/83
f 67/1/84 95/1/84 91/1/84 71/1/84
f 71/1/85 91/1/85 86/1/85 63/1/85
f 1/1/86 49/1/86 53/1/86 4/1/86
f 4/1/87 53/1/87 58/1/87 8/1/87
f 8/1/88 58/1/88 51/1/88 2/1/88
f 15/1/89 62/1/89 68/1/89 22/1/89
f 22/1/90 68/1/90 64/1/90 17/1/90
f 17/1/91 64/1/91 61/1/91 13/1/91
f 27/1/92 74/1/92 80/1/92 34/1/92
f 34/1/93 80/1/93 76/1/93 29/1/93
f 29/1/94 76/1/94 73/1/94 25/1/94
f 37/1/95 85/1/95 89/1/95 40/1/95
f 40/1/96 89/1/96 94/1/96 44/1/96
f 44/1/97 94/1/97 87/1/97 38/1/97
f 1/1/98 13/1/98 61/1/98 49/1/98
